<?xml version="1.0" standalone="no"?>
<!DOCTYPE svg PUBLIC "-//W3C//DTD SVG 20010904//EN" "http://www.w3.org/TR/2001/REC-SVG-20010904/DTD/svg10.dtd">
<svg version="1.0" xmlns="http://www.w3.org/2000/svg">
    <g transform="translate(0.000000,180.000000) scale(0.100000,-0.100000)" fill="#000000" stroke="none">
        <path d="M1361 1768 c-5 -13 -17 -44 -26 -70 -9 -26 -24 -56 -33 -67 -9 -10 -64 -35 -122 -56 -288 -103 -865 -345 -1084 -454 -118 -59 -121 -76 -25 -128 l65 -37 145 69 c258 122 855 372 865 362 2 -1 -25 -63 -60 -137 -73 -154 -140 -340 -289 -795 -126 -385 -121 -368 -99 -387 34 -30 119 -71 135 -65 8 3 23 32 31 64 9 32 39 121 65 198 27 77 79 234 116 350 62 195 112 337 150 429 15 34 18 37 33 24 52 -44 117 -71 169 -70 105 3 280 66 363 132 41 33 90 118 90 158 0 99 -81 194 -234 273 l-105 54 2 54 2 53 -60 34 c-71 40 -83 41 -94 12z m253 -297 c33 -31 68 -114 60 -144 -18 -72 -134 -147 -289 -187 -77 -20 -155 -26 -155 -13 0 14 115 221 164 296 l51 78 72 -3 c59 -3 76 -8 97 -27z"/>
    </g>
</svg>